<?xml version="1.0" encoding="utf-8"?>
<!-- Generator: Adobe Illustrator 16.0.0, SVG Export Plug-In . SVG Version: 6.00 Build 0)  -->
<!DOCTYPE svg PUBLIC "-//W3C//DTD SVG 1.1//EN" "http://www.w3.org/Graphics/SVG/1.1/DTD/svg11.dtd">
<svg version="1.1" xmlns="http://www.w3.org/2000/svg" xmlns:xlink="http://www.w3.org/1999/xlink" x="0px" y="0px"
	 width="710.012px" height="138.763px" viewBox="0 0 710.012 138.763" enable-background="new 0 0 710.012 138.763"
	 xml:space="preserve">
<g id="Layer_3">
	<g>
		<path fill="#4859A7" d="M17.546,46.981c5.22-3.48,10.875-5.075,17.4-5.075c21.46,0,32.481,14.21,32.481,32.916
			c0,22.33-16.531,33.787-34.221,33.787S2.9,100.343,0,80.913h9.425c2.03,12.906,10.44,20.444,23.926,20.444
			c12.471,0,24.071-8.989,24.071-25.955c0-16.096-9.135-26.246-23.346-26.246c-10.295,0-18.125,4.35-23.201,15.226h-8.7L9.425,6.67
			h55.247v7.54H16.966l-5.365,39.586L17.546,46.981z"/>
		<path fill="#4859A7" d="M90.595,13.34c0,3.335-2.755,6.09-6.09,6.09c-3.48,0-6.09-2.755-6.09-6.09c0-3.48,2.61-6.09,6.09-6.09
			C87.84,7.25,90.595,9.86,90.595,13.34z M80.01,106.578V29.871H89v76.707H80.01z"/>
		<path fill="#4859A7" d="M118.202,36.396c6.235-6.235,13.05-8.555,21.605-8.555c16.241,0,25.521,8.845,26.971,22.911
			c0.29,3.915,0.29,6.67,0.29,12.905v42.921h-8.99V64.672c0-4.35,0-7.685-0.29-11.6c-1.015-10.44-6.815-17.836-19.72-17.836
			c-12.761,0-23.926,9.28-23.926,33.206v38.136h-8.99V29.871h8.99v14.79L118.202,36.396z"/>
		<path fill="#4859A7" d="M227.937,92.658l-3.915,8.119c-5.365,5.365-12.905,7.832-21.315,7.832
			c-14.21,0-24.361-7.396-24.361-21.316c0-17.545,16.675-26.101,44.371-26.101h4.93v-2.755c0-3.48,0-6.38-0.29-9.425
			c-0.725-8.845-6.09-13.92-17.11-13.92c-10.585,0-18.125,5.655-19.286,17.546h-9.425c1.015-15.081,12.47-24.796,28.711-24.796
			c16.965,0,24.94,7.685,26.101,20.301c0.29,3.335,0.29,6.525,0.29,10.15v26.826c0,6.815,0.435,12.325,1.45,21.46h-8.99
			L227.937,92.658z M227.646,68.152c-21.605-1.595-39.441,3.625-39.441,18.416c0,9.715,6.09,14.936,17.255,14.936
			c13.34,0,22.186-10.151,22.186-24.506V68.152z"/>
		<path fill="#4859A7" d="M261.416,86.277c0,3.335,0,5.945,0.145,8.266c0.29,4.929,2.466,6.234,8.99,5.509v6.67
			c-2.319,0.436-4.785,0.436-7.104,0.436c-5.945,0-10.44-2.029-10.875-10.295c-0.145-2.61-0.145-5.655-0.145-10.295V0h8.99V86.277z"
			/>
		<path fill="#4859A7" d="M288.036,86.277c0,3.335,0,5.945,0.146,8.266c0.29,4.929,2.465,6.234,8.99,5.509v6.67
			c-2.32,0.436-4.785,0.436-7.105,0.436c-5.945,0-10.44-2.029-10.875-10.295c-0.146-2.61-0.146-5.655-0.146-10.295V0h8.99V86.277z"
			/>
		<path fill="#50B848" d="M339.135,6.525c5.221,0,7.54,0,12.035,0.435c20.301,2.32,39.586,16.821,39.586,48.722
			c0,31.611-19.721,47.851-39.296,50.316c-5.075,0.58-7.685,0.58-12.76,0.58h-29.291V6.525H339.135z M338.265,99.039
			c4.931,0,8.41,0,12.326-0.58c16.531-2.467,30.306-16.821,30.306-42.777c0-25.666-14.066-38.861-30.596-41.181
			c-3.19-0.435-6.381-0.435-11.601-0.435h-20.301v84.973H338.265z"/>
		<path fill="#50B848" d="M465.981,82.362c-3.625,17.834-17.689,26.247-33.061,26.247c-19.141,0-34.076-13.342-34.076-40.312
			c0-24.65,15.371-40.456,35.525-40.456c21.461,0,32.627,17.11,32.627,38.281c0,1.015,0,2.465-0.291,4.785h-58.146
			c1.016,22.621,12.471,30.596,24.941,30.596c10.73,0,20.301-6.525,23.055-19.141H465.981z M457.862,63.802
			c-1.16-19.721-10.877-28.711-23.781-28.711c-12.76,0-24.217,9.425-25.521,28.711H457.862z"/>
		<path fill="#50B848" d="M482.42,83.958c2.176,13.05,10.441,17.546,20.736,17.546c9.715,0,17.689-4.496,17.689-13.341
			c0-8.555-5.51-12.76-20.445-16.386c-13.195-3.48-24.07-8.845-24.07-22.041s10.441-21.896,25.521-21.896
			c16.676,0,25.666,10.005,27.406,23.491h-9.426c-2.176-10.585-8.41-16.241-18.705-16.241c-9.281,0-15.516,5.22-15.516,13.63
			c0,8.846,7.25,12.326,18.27,15.081c17.691,4.35,26.102,10.73,26.102,23.636c0,13.63-11.602,21.171-27.406,21.171
			c-15.225,0-27.262-7.252-29.436-24.651H482.42z"/>
		<path fill="#50B848" d="M552.137,13.34c0,3.335-2.756,6.09-6.092,6.09c-3.479,0-6.09-2.755-6.09-6.09c0-3.48,2.611-6.09,6.09-6.09
			C549.381,7.25,552.137,9.86,552.137,13.34z M541.551,106.578V29.871h8.99v76.707H541.551z"/>
		<path fill="#50B848" d="M631.698,87.147c0,7.54,0,13.485-0.145,17.981c-0.725,20.445-12.904,32.48-33.641,32.48
			c-17.111,0-29.146-6.525-33.496-24.795h9.281c4.059,13.049,12.615,17.689,24.795,17.689c15.371,0,23.49-9.715,24.07-24.941
			c0.145-4.205,0.145-7.25,0.145-11.309v-1.885l-5.074,8.409c-5.365,5.365-12.906,7.832-21.75,7.832
			c-21.461,0-34.221-16.676-34.221-39.442c0-27.841,17.109-41.326,36.541-41.326c7.539,0,14.934,2.32,19.719,6.96l4.785,8.121
			V29.726h8.99V87.147z M622.708,64.237c0-21.75-13.195-29.146-24.504-29.146c-15.371,0-26.682,12.181-26.682,32.916
			c0,18.416,8.846,33.497,25.666,33.497c13.631,0,25.52-8.266,25.52-31.466V64.237z"/>
		<path fill="#50B848" d="M661.147,36.396c6.234-6.235,13.051-8.555,21.605-8.555c16.24,0,25.52,8.845,26.971,22.911
			c0.289,3.915,0.289,6.67,0.289,12.905v42.921h-8.99V64.672c0-4.35,0-7.685-0.289-11.6c-1.016-10.44-6.816-17.836-19.721-17.836
			c-12.76,0-23.926,9.28-23.926,33.206v38.136h-8.99V29.871h8.99v14.79L661.147,36.396z"/>
	</g>
</g>
<g id="Layer_4">
</g>
</svg>
